<mxfile host="Electron" agent="Mozilla/5.0 (Windows NT 10.0; Win64; x64) AppleWebKit/537.36 (KHTML, like Gecko) draw.io/22.0.2 Chrome/114.0.5735.289 Electron/25.8.4 Safari/537.36" modified="2025-01-27T18:47:39.704Z" version="22.0.2" etag="0KZ-VQ5Cu162N2NRVkxY" type="device">
  <diagram name="Page-1" id="Yrs7KlP71VBfs4nfrlCE">
    <mxGraphModel dx="2193" dy="1965" grid="1" gridSize="10" guides="1" tooltips="1" connect="1" arrows="1" fold="1" page="1" pageScale="1" pageWidth="827" pageHeight="1169" background="#ffffff" math="0" shadow="0">
      <root>
        <mxCell id="0" />
        <mxCell id="1" parent="0" />
        <mxCell id="stQqlkazPtPQdjLViboA-192" value="Authentifié" style="ellipse;whiteSpace=wrap;html=1;labelBackgroundColor=none;fillColor=#F2CC8F;strokeColor=#E07A5F;fontColor=#393C56;" parent="1" vertex="1">
          <mxGeometry x="950" y="890" width="120" height="80" as="geometry" />
        </mxCell>
        <mxCell id="fzgczVOHdvdYnYpxsNVG-3" value="&lt;b style=&quot;font-size: 16px;&quot;&gt;&lt;font style=&quot;font-size: 20px;&quot;&gt;&lt;u&gt;Diagramme de cas d&#39;utilisation: OptiRH&lt;/u&gt;&lt;/font&gt;&lt;/b&gt;" style="swimlane;whiteSpace=wrap;html=1;rounded=1;strokeColor=#E07A5F;fontColor=#393C56;fillColor=#F2CC8F;startSize=30;shadow=1;labelBackgroundColor=none;" vertex="1" parent="1">
          <mxGeometry x="-50" y="-130" width="962.5" height="2280" as="geometry" />
        </mxCell>
        <mxCell id="stQqlkazPtPQdjLViboA-6" value="Suivre le Trajet" style="ellipse;whiteSpace=wrap;html=1;labelBackgroundColor=none;fillColor=#F2CC8F;strokeColor=#E07A5F;fontColor=#393C56;" parent="fzgczVOHdvdYnYpxsNVG-3" vertex="1">
          <mxGeometry x="844.5" y="379" width="193" height="34" as="geometry" />
        </mxCell>
        <mxCell id="stQqlkazPtPQdjLViboA-5" value="Gérer les Véhicules&amp;nbsp;" style="ellipse;whiteSpace=wrap;html=1;labelBackgroundColor=none;fillColor=#F2CC8F;strokeColor=#E07A5F;fontColor=#393C56;" parent="fzgczVOHdvdYnYpxsNVG-3" vertex="1">
          <mxGeometry x="844.5" y="306" width="211" height="35" as="geometry" />
        </mxCell>
        <mxCell id="stQqlkazPtPQdjLViboA-52" value="Traiter les réclamations&amp;nbsp;" style="ellipse;whiteSpace=wrap;html=1;labelBackgroundColor=none;fillColor=#F2CC8F;strokeColor=#E07A5F;fontColor=#393C56;" parent="fzgczVOHdvdYnYpxsNVG-3" vertex="1">
          <mxGeometry x="853.5" y="425" width="179" height="42" as="geometry" />
        </mxCell>
        <mxCell id="stQqlkazPtPQdjLViboA-53" value="analyser les risques&amp;nbsp;" style="ellipse;whiteSpace=wrap;html=1;labelBackgroundColor=none;fillColor=#F2CC8F;strokeColor=#E07A5F;fontColor=#393C56;" parent="fzgczVOHdvdYnYpxsNVG-3" vertex="1">
          <mxGeometry x="856.5" y="479" width="176" height="37" as="geometry" />
        </mxCell>
        <mxCell id="stQqlkazPtPQdjLViboA-54" value="Organiser les évènements interne" style="ellipse;whiteSpace=wrap;html=1;labelBackgroundColor=none;fillColor=#F2CC8F;strokeColor=#E07A5F;fontColor=#393C56;" parent="fzgczVOHdvdYnYpxsNVG-3" vertex="1">
          <mxGeometry x="845.5" y="525" width="210" height="39" as="geometry" />
        </mxCell>
        <mxCell id="stQqlkazPtPQdjLViboA-55" value="gérer les inscriptions au évènements" style="ellipse;whiteSpace=wrap;html=1;labelBackgroundColor=none;fillColor=#F2CC8F;strokeColor=#E07A5F;fontColor=#393C56;" parent="fzgczVOHdvdYnYpxsNVG-3" vertex="1">
          <mxGeometry x="849.5" y="581" width="209" height="37" as="geometry" />
        </mxCell>
        <mxCell id="stQqlkazPtPQdjLViboA-64" style="edgeStyle=none;curved=1;rounded=0;orthogonalLoop=1;jettySize=auto;html=1;exitX=0.5;exitY=1;exitDx=0;exitDy=0;fontSize=12;startSize=8;endSize=8;labelBackgroundColor=none;strokeColor=#E07A5F;fontColor=default;" parent="fzgczVOHdvdYnYpxsNVG-3" edge="1">
          <mxGeometry relative="1" as="geometry">
            <mxPoint x="1078.5" y="671" as="sourcePoint" />
            <mxPoint x="1078.5" y="671" as="targetPoint" />
          </mxGeometry>
        </mxCell>
        <mxCell id="stQqlkazPtPQdjLViboA-66" value="répondre aux demandes congés&amp;nbsp;" style="ellipse;whiteSpace=wrap;html=1;labelBackgroundColor=none;fillColor=#F2CC8F;strokeColor=#E07A5F;fontColor=#393C56;" parent="fzgczVOHdvdYnYpxsNVG-3" vertex="1">
          <mxGeometry x="859.5" y="642" width="178" height="42" as="geometry" />
        </mxCell>
        <mxCell id="stQqlkazPtPQdjLViboA-69" value="Attribuer des missions" style="ellipse;whiteSpace=wrap;html=1;labelBackgroundColor=none;fillColor=#F2CC8F;strokeColor=#E07A5F;fontColor=#393C56;" parent="fzgczVOHdvdYnYpxsNVG-3" vertex="1">
          <mxGeometry x="866.5" y="697" width="156" height="38" as="geometry" />
        </mxCell>
        <mxCell id="stQqlkazPtPQdjLViboA-4" value="Gérer les Candidateur" style="ellipse;whiteSpace=wrap;html=1;labelBackgroundColor=none;fillColor=#F2CC8F;strokeColor=#E07A5F;fontColor=#393C56;" parent="fzgczVOHdvdYnYpxsNVG-3" vertex="1">
          <mxGeometry x="840" y="259" width="214" height="34" as="geometry" />
        </mxCell>
        <mxCell id="fzgczVOHdvdYnYpxsNVG-44" style="edgeStyle=orthogonalEdgeStyle;orthogonalLoop=1;jettySize=auto;html=1;strokeColor=#E07A5F;fontColor=#393C56;fillColor=#F2CC8F;endArrow=none;endFill=0;curved=1;" edge="1" parent="fzgczVOHdvdYnYpxsNVG-3" source="stQqlkazPtPQdjLViboA-169" target="fzgczVOHdvdYnYpxsNVG-34">
          <mxGeometry relative="1" as="geometry">
            <Array as="points">
              <mxPoint x="-65" y="174" />
              <mxPoint x="100" y="174" />
            </Array>
          </mxGeometry>
        </mxCell>
        <mxCell id="fzgczVOHdvdYnYpxsNVG-45" style="edgeStyle=orthogonalEdgeStyle;orthogonalLoop=1;jettySize=auto;html=1;strokeColor=#E07A5F;fontColor=#393C56;fillColor=#F2CC8F;endArrow=none;endFill=0;curved=1;" edge="1" parent="fzgczVOHdvdYnYpxsNVG-3" source="stQqlkazPtPQdjLViboA-169" target="fzgczVOHdvdYnYpxsNVG-35">
          <mxGeometry relative="1" as="geometry">
            <Array as="points">
              <mxPoint x="-65" y="174" />
              <mxPoint x="223" y="174" />
            </Array>
          </mxGeometry>
        </mxCell>
        <mxCell id="fzgczVOHdvdYnYpxsNVG-46" style="edgeStyle=orthogonalEdgeStyle;orthogonalLoop=1;jettySize=auto;html=1;strokeColor=#E07A5F;fontColor=#393C56;fillColor=#F2CC8F;endArrow=none;endFill=0;curved=1;" edge="1" parent="fzgczVOHdvdYnYpxsNVG-3" source="stQqlkazPtPQdjLViboA-169" target="fzgczVOHdvdYnYpxsNVG-36">
          <mxGeometry relative="1" as="geometry">
            <Array as="points">
              <mxPoint x="-65" y="174" />
              <mxPoint x="346" y="174" />
            </Array>
          </mxGeometry>
        </mxCell>
        <mxCell id="fzgczVOHdvdYnYpxsNVG-47" style="edgeStyle=orthogonalEdgeStyle;orthogonalLoop=1;jettySize=auto;html=1;strokeColor=#E07A5F;fontColor=#393C56;fillColor=#F2CC8F;endArrow=none;endFill=0;curved=1;" edge="1" parent="fzgczVOHdvdYnYpxsNVG-3" source="stQqlkazPtPQdjLViboA-169" target="fzgczVOHdvdYnYpxsNVG-37">
          <mxGeometry relative="1" as="geometry">
            <Array as="points">
              <mxPoint x="-65" y="174" />
              <mxPoint x="469" y="174" />
            </Array>
          </mxGeometry>
        </mxCell>
        <mxCell id="fzgczVOHdvdYnYpxsNVG-48" style="edgeStyle=orthogonalEdgeStyle;orthogonalLoop=1;jettySize=auto;html=1;strokeColor=#E07A5F;fontColor=#393C56;fillColor=#F2CC8F;endArrow=none;endFill=0;curved=1;" edge="1" parent="fzgczVOHdvdYnYpxsNVG-3" source="stQqlkazPtPQdjLViboA-169" target="fzgczVOHdvdYnYpxsNVG-38">
          <mxGeometry relative="1" as="geometry">
            <Array as="points">
              <mxPoint x="-65" y="174" />
              <mxPoint x="591" y="174" />
            </Array>
          </mxGeometry>
        </mxCell>
        <mxCell id="stQqlkazPtPQdjLViboA-169" value="Stagiaire" style="shape=umlActor;verticalLabelPosition=bottom;verticalAlign=top;html=1;outlineConnect=0;labelBackgroundColor=none;fillColor=#F2CC8F;strokeColor=#E07A5F;fontColor=#393C56;" parent="fzgczVOHdvdYnYpxsNVG-3" vertex="1">
          <mxGeometry x="-80" y="199" width="30" height="60" as="geometry" />
        </mxCell>
        <mxCell id="stQqlkazPtPQdjLViboA-191" style="edgeStyle=none;curved=1;rounded=0;orthogonalLoop=1;jettySize=auto;html=1;fontSize=12;startSize=8;endSize=8;labelBackgroundColor=none;strokeColor=#E07A5F;fontColor=default;endArrow=block;endFill=1;" parent="fzgczVOHdvdYnYpxsNVG-3" source="stQqlkazPtPQdjLViboA-170" edge="1">
          <mxGeometry relative="1" as="geometry">
            <mxPoint x="-65" y="284.2000427246094" as="targetPoint" />
          </mxGeometry>
        </mxCell>
        <mxCell id="fzgczVOHdvdYnYpxsNVG-33" value="Postuler à une offre&amp;nbsp;" style="ellipse;whiteSpace=wrap;html=1;strokeColor=#E07A5F;fontColor=#393C56;fillColor=#F2CC8F;" vertex="1" parent="fzgczVOHdvdYnYpxsNVG-3">
          <mxGeometry x="43" y="53" width="120" height="54" as="geometry" />
        </mxCell>
        <mxCell id="fzgczVOHdvdYnYpxsNVG-34" value="Demander un transport" style="ellipse;whiteSpace=wrap;html=1;strokeColor=#E07A5F;fontColor=#393C56;fillColor=#F2CC8F;" vertex="1" parent="fzgczVOHdvdYnYpxsNVG-3">
          <mxGeometry x="40" y="202.5" width="120" height="54" as="geometry" />
        </mxCell>
        <mxCell id="fzgczVOHdvdYnYpxsNVG-35" value="Soumettre une reclamation" style="ellipse;whiteSpace=wrap;html=1;strokeColor=#E07A5F;fontColor=#393C56;fillColor=#F2CC8F;" vertex="1" parent="fzgczVOHdvdYnYpxsNVG-3">
          <mxGeometry x="163" y="201.5" width="120" height="54" as="geometry" />
        </mxCell>
        <mxCell id="fzgczVOHdvdYnYpxsNVG-36" value="S&#39;inscrire aux évènements&amp;nbsp;&amp;nbsp;" style="ellipse;whiteSpace=wrap;html=1;strokeColor=#E07A5F;fontColor=#393C56;fillColor=#F2CC8F;align=center;" vertex="1" parent="fzgczVOHdvdYnYpxsNVG-3">
          <mxGeometry x="286" y="202.5" width="120" height="54" as="geometry" />
        </mxCell>
        <mxCell id="fzgczVOHdvdYnYpxsNVG-37" value="Consulter ses missions" style="ellipse;whiteSpace=wrap;html=1;strokeColor=#E07A5F;fontColor=#393C56;fillColor=#F2CC8F;" vertex="1" parent="fzgczVOHdvdYnYpxsNVG-3">
          <mxGeometry x="409" y="201.5" width="120" height="54" as="geometry" />
        </mxCell>
        <mxCell id="fzgczVOHdvdYnYpxsNVG-38" value="Mettre à jour l&#39;Etat d&#39;avancement&amp;nbsp;" style="ellipse;whiteSpace=wrap;html=1;strokeColor=#E07A5F;fontColor=#393C56;fillColor=#F2CC8F;" vertex="1" parent="fzgczVOHdvdYnYpxsNVG-3">
          <mxGeometry x="532" y="202.5" width="120" height="54" as="geometry" />
        </mxCell>
        <mxCell id="fzgczVOHdvdYnYpxsNVG-39" value="Signaler un incidents Rh" style="ellipse;whiteSpace=wrap;html=1;strokeColor=#E07A5F;fontColor=#393C56;fillColor=#F2CC8F;" vertex="1" parent="fzgczVOHdvdYnYpxsNVG-3">
          <mxGeometry x="810" y="95" width="120" height="54" as="geometry" />
        </mxCell>
        <mxCell id="fzgczVOHdvdYnYpxsNVG-49" value="Demander un congés&amp;nbsp;" style="ellipse;whiteSpace=wrap;html=1;strokeColor=#E07A5F;fontColor=#393C56;fillColor=#F2CC8F;" vertex="1" parent="fzgczVOHdvdYnYpxsNVG-3">
          <mxGeometry x="43" y="354" width="120" height="54" as="geometry" />
        </mxCell>
        <mxCell id="fzgczVOHdvdYnYpxsNVG-50" value="Justifiées une absences&amp;nbsp;" style="ellipse;whiteSpace=wrap;html=1;strokeColor=#E07A5F;fontColor=#393C56;fillColor=#F2CC8F;" vertex="1" parent="fzgczVOHdvdYnYpxsNVG-3">
          <mxGeometry x="166" y="354" width="120" height="54" as="geometry" />
        </mxCell>
        <mxCell id="stQqlkazPtPQdjLViboA-119" value="Gérer les évènement pour son équipes&amp;nbsp;" style="ellipse;whiteSpace=wrap;html=1;labelBackgroundColor=none;fillColor=#F2CC8F;strokeColor=#E07A5F;fontColor=#393C56;" parent="fzgczVOHdvdYnYpxsNVG-3" vertex="1">
          <mxGeometry x="428.5" y="888" width="250" height="48" as="geometry" />
        </mxCell>
        <mxCell id="stQqlkazPtPQdjLViboA-121" value="Assigner des Tâches&amp;nbsp;&amp;nbsp;" style="ellipse;whiteSpace=wrap;html=1;labelBackgroundColor=none;fillColor=#F2CC8F;strokeColor=#E07A5F;fontColor=#393C56;" parent="fzgczVOHdvdYnYpxsNVG-3" vertex="1">
          <mxGeometry x="421.5" y="959" width="176" height="37" as="geometry" />
        </mxCell>
        <mxCell id="stQqlkazPtPQdjLViboA-122" value="Suivre l&#39;avancement des missions&amp;nbsp;" style="ellipse;whiteSpace=wrap;html=1;labelBackgroundColor=none;fillColor=#F2CC8F;strokeColor=#E07A5F;fontColor=#393C56;" parent="fzgczVOHdvdYnYpxsNVG-3" vertex="1">
          <mxGeometry x="430.5" y="1007" width="155" height="46" as="geometry" />
        </mxCell>
        <mxCell id="stQqlkazPtPQdjLViboA-123" value="Signaler les incidents dans son equipe&amp;nbsp;" style="ellipse;whiteSpace=wrap;html=1;labelBackgroundColor=none;fillColor=#F2CC8F;strokeColor=#E07A5F;fontColor=#393C56;" parent="fzgczVOHdvdYnYpxsNVG-3" vertex="1">
          <mxGeometry x="421.5" y="1059" width="164" height="46" as="geometry" />
        </mxCell>
        <mxCell id="stQqlkazPtPQdjLViboA-124" value="Gérer les risques&amp;nbsp;" style="ellipse;whiteSpace=wrap;html=1;labelBackgroundColor=none;fillColor=#F2CC8F;strokeColor=#E07A5F;fontColor=#393C56;" parent="fzgczVOHdvdYnYpxsNVG-3" vertex="1">
          <mxGeometry x="448" y="1143" width="120" height="30" as="geometry" />
        </mxCell>
        <mxCell id="stQqlkazPtPQdjLViboA-125" value="Consulter les statistiques des membres de son équipes&amp;nbsp;" style="ellipse;whiteSpace=wrap;html=1;labelBackgroundColor=none;fillColor=#F2CC8F;strokeColor=#E07A5F;fontColor=#393C56;" parent="fzgczVOHdvdYnYpxsNVG-3" vertex="1">
          <mxGeometry x="422" y="1190" width="177" height="43" as="geometry" />
        </mxCell>
        <mxCell id="fzgczVOHdvdYnYpxsNVG-57" value="Suivre les recrutements&amp;nbsp;" style="ellipse;whiteSpace=wrap;html=1;strokeColor=#E07A5F;fontColor=#393C56;fillColor=#F2CC8F;" vertex="1" parent="fzgczVOHdvdYnYpxsNVG-3">
          <mxGeometry x="40" y="500" width="120" height="54" as="geometry" />
        </mxCell>
        <mxCell id="fzgczVOHdvdYnYpxsNVG-58" value="Valider les candidatures pour son équipe&amp;nbsp;" style="ellipse;whiteSpace=wrap;html=1;strokeColor=#E07A5F;fontColor=#393C56;fillColor=#F2CC8F;" vertex="1" parent="fzgczVOHdvdYnYpxsNVG-3">
          <mxGeometry x="166" y="500" width="120" height="54" as="geometry" />
        </mxCell>
        <mxCell id="fzgczVOHdvdYnYpxsNVG-59" value="Valider les demandes de transports" style="ellipse;whiteSpace=wrap;html=1;strokeColor=#E07A5F;fontColor=#393C56;fillColor=#F2CC8F;" vertex="1" parent="fzgczVOHdvdYnYpxsNVG-3">
          <mxGeometry x="289.5" y="500" width="120" height="54" as="geometry" />
        </mxCell>
        <mxCell id="fzgczVOHdvdYnYpxsNVG-60" value="Gérer les réclamations de son équipe&amp;nbsp;" style="ellipse;whiteSpace=wrap;html=1;strokeColor=#E07A5F;fontColor=#393C56;fillColor=#F2CC8F;" vertex="1" parent="fzgczVOHdvdYnYpxsNVG-3">
          <mxGeometry x="412" y="500" width="120" height="54" as="geometry" />
        </mxCell>
        <mxCell id="fzgczVOHdvdYnYpxsNVG-61" value="Valider les congés&lt;br&gt;de son équipe" style="ellipse;whiteSpace=wrap;html=1;strokeColor=#E07A5F;fontColor=#393C56;fillColor=#F2CC8F;" vertex="1" parent="fzgczVOHdvdYnYpxsNVG-3">
          <mxGeometry x="535" y="500" width="120" height="54" as="geometry" />
        </mxCell>
        <mxCell id="fzgczVOHdvdYnYpxsNVG-62" value="Valider les congés&lt;br&gt;de son équipe" style="ellipse;whiteSpace=wrap;html=1;strokeColor=#E07A5F;fontColor=#393C56;fillColor=#F2CC8F;" vertex="1" parent="fzgczVOHdvdYnYpxsNVG-3">
          <mxGeometry x="658" y="500" width="120" height="54" as="geometry" />
        </mxCell>
        <mxCell id="fzgczVOHdvdYnYpxsNVG-54" style="edgeStyle=orthogonalEdgeStyle;orthogonalLoop=1;jettySize=auto;html=1;strokeColor=#E07A5F;fontColor=#393C56;fillColor=#F2CC8F;curved=1;endArrow=none;endFill=0;" edge="1" parent="1" source="stQqlkazPtPQdjLViboA-170" target="fzgczVOHdvdYnYpxsNVG-49">
          <mxGeometry relative="1" as="geometry">
            <Array as="points">
              <mxPoint x="-115" y="210" />
              <mxPoint x="53" y="210" />
            </Array>
          </mxGeometry>
        </mxCell>
        <mxCell id="fzgczVOHdvdYnYpxsNVG-55" style="edgeStyle=orthogonalEdgeStyle;orthogonalLoop=1;jettySize=auto;html=1;strokeColor=#E07A5F;fontColor=#393C56;fillColor=#F2CC8F;curved=1;endArrow=none;endFill=0;" edge="1" parent="1" source="stQqlkazPtPQdjLViboA-170" target="fzgczVOHdvdYnYpxsNVG-50">
          <mxGeometry relative="1" as="geometry">
            <Array as="points">
              <mxPoint x="-115" y="200" />
              <mxPoint x="176" y="200" />
            </Array>
          </mxGeometry>
        </mxCell>
        <mxCell id="stQqlkazPtPQdjLViboA-170" value="Employe" style="shape=umlActor;verticalLabelPosition=bottom;verticalAlign=top;html=1;outlineConnect=0;labelBackgroundColor=none;fillColor=#F2CC8F;strokeColor=#E07A5F;fontColor=#393C56;" parent="1" vertex="1">
          <mxGeometry x="-130" y="221" width="30" height="60" as="geometry" />
        </mxCell>
        <mxCell id="fzgczVOHdvdYnYpxsNVG-53" style="edgeStyle=orthogonalEdgeStyle;orthogonalLoop=1;jettySize=auto;html=1;strokeColor=#E07A5F;fontColor=#393C56;fillColor=#F2CC8F;curved=1;endArrow=none;endFill=0;" edge="1" parent="1" source="fzgczVOHdvdYnYpxsNVG-51" target="fzgczVOHdvdYnYpxsNVG-33">
          <mxGeometry relative="1" as="geometry" />
        </mxCell>
        <mxCell id="fzgczVOHdvdYnYpxsNVG-51" value="Candidat" style="shape=umlActor;verticalLabelPosition=bottom;verticalAlign=top;html=1;outlineConnect=0;labelBackgroundColor=none;fillColor=#F2CC8F;strokeColor=#E07A5F;fontColor=#393C56;" vertex="1" parent="1">
          <mxGeometry x="-130" y="-80" width="30" height="60" as="geometry" />
        </mxCell>
        <mxCell id="fzgczVOHdvdYnYpxsNVG-52" style="edgeStyle=none;curved=1;rounded=0;orthogonalLoop=1;jettySize=auto;html=1;fontSize=12;startSize=8;endSize=8;labelBackgroundColor=none;strokeColor=#E07A5F;fontColor=default;exitX=0.5;exitY=0;exitDx=0;exitDy=0;exitPerimeter=0;endArrow=block;endFill=1;" edge="1" parent="1" source="stQqlkazPtPQdjLViboA-169">
          <mxGeometry relative="1" as="geometry">
            <mxPoint x="-115" y="20" as="targetPoint" />
            <mxPoint x="-115" y="90" as="sourcePoint" />
          </mxGeometry>
        </mxCell>
        <mxCell id="stQqlkazPtPQdjLViboA-2" value="Admin" style="shape=umlActor;verticalLabelPosition=bottom;verticalAlign=top;html=1;outlineConnect=0;labelBackgroundColor=none;fillColor=#F2CC8F;strokeColor=#E07A5F;fontColor=#393C56;" parent="1" vertex="1">
          <mxGeometry x="-710" y="1640" width="30" height="60" as="geometry" />
        </mxCell>
        <mxCell id="stQqlkazPtPQdjLViboA-70" value="Gérer les utilisateurs et leur permission" style="ellipse;whiteSpace=wrap;html=1;labelBackgroundColor=none;fillColor=#F2CC8F;strokeColor=#E07A5F;fontColor=#393C56;" parent="1" vertex="1">
          <mxGeometry x="-539.5" y="1619" width="207" height="32" as="geometry" />
        </mxCell>
        <mxCell id="stQqlkazPtPQdjLViboA-79" value="Surveiller les incidents RH" style="ellipse;whiteSpace=wrap;html=1;labelBackgroundColor=none;fillColor=#F2CC8F;strokeColor=#E07A5F;fontColor=#393C56;" parent="1" vertex="1">
          <mxGeometry x="-531" y="1671.5" width="172" height="38" as="geometry" />
        </mxCell>
        <mxCell id="stQqlkazPtPQdjLViboA-80" value="Utiliser l&#39;IA pour la prédiction de risque" style="ellipse;whiteSpace=wrap;html=1;labelBackgroundColor=none;fillColor=#F2CC8F;strokeColor=#E07A5F;fontColor=#393C56;" parent="1" vertex="1">
          <mxGeometry x="-449" y="1748" width="120" height="42" as="geometry" />
        </mxCell>
        <mxCell id="stQqlkazPtPQdjLViboA-81" value="Extend" style="endArrow=open;endSize=12;dashed=1;html=1;rounded=0;fontSize=12;curved=1;exitX=0.5;exitY=0;exitDx=0;exitDy=0;entryX=0.741;entryY=0.961;entryDx=0;entryDy=0;entryPerimeter=0;labelBackgroundColor=none;strokeColor=#E07A5F;fontColor=default;" parent="1" source="stQqlkazPtPQdjLViboA-80" target="stQqlkazPtPQdjLViboA-79" edge="1">
          <mxGeometry width="160" relative="1" as="geometry">
            <mxPoint x="-489" y="1683" as="sourcePoint" />
            <mxPoint x="-329" y="1683" as="targetPoint" />
          </mxGeometry>
        </mxCell>
        <mxCell id="stQqlkazPtPQdjLViboA-82" value="Gérer des rapports globaux sur tous les modules&amp;nbsp;" style="ellipse;whiteSpace=wrap;html=1;labelBackgroundColor=none;fillColor=#F2CC8F;strokeColor=#E07A5F;fontColor=#393C56;" parent="1" vertex="1">
          <mxGeometry x="-499" y="1821" width="194" height="39" as="geometry" />
        </mxCell>
        <mxCell id="stQqlkazPtPQdjLViboA-207" style="edgeStyle=none;curved=1;rounded=0;orthogonalLoop=1;jettySize=auto;html=1;exitX=0.5;exitY=1;exitDx=0;exitDy=0;fontSize=12;startSize=8;endSize=8;labelBackgroundColor=none;strokeColor=#E07A5F;fontColor=default;" parent="1" edge="1">
          <mxGeometry relative="1" as="geometry">
            <mxPoint x="-304.5" y="1703.5" as="sourcePoint" />
            <mxPoint x="-304.5" y="1703.5" as="targetPoint" />
          </mxGeometry>
        </mxCell>
        <mxCell id="stQqlkazPtPQdjLViboA-3" value="Gérer les Offres d&#39;emploi" style="ellipse;whiteSpace=wrap;html=1;labelBackgroundColor=none;fillColor=#F2CC8F;strokeColor=#E07A5F;fontColor=#393C56;" parent="1" vertex="1">
          <mxGeometry x="-545" y="1500" width="208" height="42" as="geometry" />
        </mxCell>
        <mxCell id="fzgczVOHdvdYnYpxsNVG-20" style="edgeStyle=orthogonalEdgeStyle;orthogonalLoop=1;jettySize=auto;html=1;strokeColor=#E07A5F;fontColor=#393C56;fillColor=#F2CC8F;endArrow=none;endFill=0;startArrow=block;startFill=0;curved=1;" edge="1" parent="1" source="stQqlkazPtPQdjLViboA-3" target="fzgczVOHdvdYnYpxsNVG-24">
          <mxGeometry relative="1" as="geometry">
            <Array as="points">
              <mxPoint x="-441" y="1560" />
              <mxPoint x="-368" y="1560" />
            </Array>
          </mxGeometry>
        </mxCell>
        <mxCell id="fzgczVOHdvdYnYpxsNVG-27" value="&lt;font style=&quot;font-size: 8px;&quot;&gt;Crée&lt;/font&gt;" style="ellipse;whiteSpace=wrap;html=1;strokeColor=#E07A5F;fontColor=#393C56;fillColor=#F2CC8F;" vertex="1" parent="1">
          <mxGeometry x="-542" y="1577" width="45" height="30" as="geometry" />
        </mxCell>
        <mxCell id="fzgczVOHdvdYnYpxsNVG-21" style="edgeStyle=orthogonalEdgeStyle;orthogonalLoop=1;jettySize=auto;html=1;strokeColor=#E07A5F;fontColor=#393C56;fillColor=#F2CC8F;endArrow=none;endFill=0;startArrow=block;startFill=0;curved=1;" edge="1" parent="1" source="stQqlkazPtPQdjLViboA-3" target="fzgczVOHdvdYnYpxsNVG-25">
          <mxGeometry relative="1" as="geometry" />
        </mxCell>
        <mxCell id="fzgczVOHdvdYnYpxsNVG-26" value="&lt;font style=&quot;font-size: 8px;&quot;&gt;Modifier&lt;/font&gt;" style="ellipse;whiteSpace=wrap;html=1;strokeColor=#E07A5F;fontColor=#393C56;fillColor=#F2CC8F;" vertex="1" parent="1">
          <mxGeometry x="-491" y="1577" width="45" height="30" as="geometry" />
        </mxCell>
        <mxCell id="fzgczVOHdvdYnYpxsNVG-22" style="edgeStyle=orthogonalEdgeStyle;orthogonalLoop=1;jettySize=auto;html=1;strokeColor=#E07A5F;fontColor=#393C56;fillColor=#F2CC8F;endArrow=none;endFill=0;startArrow=block;startFill=0;curved=1;" edge="1" parent="1" source="stQqlkazPtPQdjLViboA-3" target="fzgczVOHdvdYnYpxsNVG-26">
          <mxGeometry relative="1" as="geometry">
            <mxPoint x="-365.5" y="1639" as="targetPoint" />
          </mxGeometry>
        </mxCell>
        <mxCell id="fzgczVOHdvdYnYpxsNVG-25" value="&lt;font style=&quot;font-size: 8px;&quot;&gt;Supprimer&lt;/font&gt;" style="ellipse;whiteSpace=wrap;html=1;strokeColor=#E07A5F;fontColor=#393C56;fillColor=#F2CC8F;" vertex="1" parent="1">
          <mxGeometry x="-441" y="1577" width="45" height="30" as="geometry" />
        </mxCell>
        <mxCell id="fzgczVOHdvdYnYpxsNVG-28" style="edgeStyle=orthogonalEdgeStyle;orthogonalLoop=1;jettySize=auto;html=1;strokeColor=#E07A5F;fontColor=#393C56;fillColor=#F2CC8F;endArrow=none;endFill=0;startArrow=block;startFill=0;curved=1;" edge="1" parent="1" source="stQqlkazPtPQdjLViboA-3" target="fzgczVOHdvdYnYpxsNVG-27">
          <mxGeometry relative="1" as="geometry">
            <mxPoint x="-431" y="1616" as="sourcePoint" />
            <mxPoint x="-418" y="1651" as="targetPoint" />
            <Array as="points">
              <mxPoint x="-441" y="1560" />
              <mxPoint x="-528" y="1560" />
            </Array>
          </mxGeometry>
        </mxCell>
        <mxCell id="fzgczVOHdvdYnYpxsNVG-24" value="&lt;font style=&quot;font-size: 8px;&quot;&gt;Afficher&lt;/font&gt;" style="ellipse;whiteSpace=wrap;html=1;strokeColor=#E07A5F;fontColor=#393C56;fillColor=#F2CC8F;" vertex="1" parent="1">
          <mxGeometry x="-391" y="1577" width="45" height="30" as="geometry" />
        </mxCell>
        <mxCell id="fzgczVOHdvdYnYpxsNVG-56" style="edgeStyle=orthogonalEdgeStyle;rounded=0;orthogonalLoop=1;jettySize=auto;html=1;strokeColor=#E07A5F;fontColor=#393C56;fillColor=#F2CC8F;startSize=8;endSize=8;" edge="1" parent="1" source="stQqlkazPtPQdjLViboA-114">
          <mxGeometry relative="1" as="geometry">
            <mxPoint x="-115" y="310" as="targetPoint" />
          </mxGeometry>
        </mxCell>
        <mxCell id="stQqlkazPtPQdjLViboA-114" value="Chef Projet" style="shape=umlActor;verticalLabelPosition=bottom;verticalAlign=top;html=1;outlineConnect=0;labelBackgroundColor=none;fillColor=#F2CC8F;strokeColor=#E07A5F;fontColor=#393C56;" parent="1" vertex="1">
          <mxGeometry x="-130" y="360" width="30" height="60" as="geometry" />
        </mxCell>
      </root>
    </mxGraphModel>
  </diagram>
</mxfile>
